<svg width="176" height="41" viewBox="0 0 176 41" fill="none" xmlns="http://www.w3.org/2000/svg">
<path d="M67.928 25.808H61.256L60.152 29H56.624L62.648 12.224H66.56L72.584 29H69.032L67.928 25.808ZM67.016 23.12L64.592 16.112L62.168 23.12H67.016ZM78.1957 17.624C78.6277 17.016 79.2197 16.512 79.9717 16.112C80.7397 15.696 81.6117 15.488 82.5877 15.488C83.7237 15.488 84.7477 15.768 85.6597 16.328C86.5877 16.888 87.3157 17.688 87.8437 18.728C88.3877 19.752 88.6597 20.944 88.6597 22.304C88.6597 23.664 88.3877 24.872 87.8437 25.928C87.3157 26.968 86.5877 27.776 85.6597 28.352C84.7477 28.928 83.7237 29.216 82.5877 29.216C81.6117 29.216 80.7477 29.016 79.9957 28.616C79.2597 28.216 78.6597 27.712 78.1957 27.104V35.336H74.8357V15.704H78.1957V17.624ZM85.2277 22.304C85.2277 21.504 85.0597 20.816 84.7237 20.24C84.4037 19.648 83.9717 19.2 83.4277 18.896C82.8997 18.592 82.3237 18.44 81.6997 18.44C81.0917 18.44 80.5157 18.6 79.9717 18.92C79.4437 19.224 79.0117 19.672 78.6757 20.264C78.3557 20.856 78.1957 21.552 78.1957 22.352C78.1957 23.152 78.3557 23.848 78.6757 24.44C79.0117 25.032 79.4437 25.488 79.9717 25.808C80.5157 26.112 81.0917 26.264 81.6997 26.264C82.3237 26.264 82.8997 26.104 83.4277 25.784C83.9717 25.464 84.4037 25.008 84.7237 24.416C85.0597 23.824 85.2277 23.12 85.2277 22.304ZM94.4613 17.624C94.8933 17.016 95.4853 16.512 96.2373 16.112C97.0053 15.696 97.8773 15.488 98.8533 15.488C99.9893 15.488 101.013 15.768 101.925 16.328C102.853 16.888 103.581 17.688 104.109 18.728C104.653 19.752 104.925 20.944 104.925 22.304C104.925 23.664 104.653 24.872 104.109 25.928C103.581 26.968 102.853 27.776 101.925 28.352C101.013 28.928 99.9893 29.216 98.8533 29.216C97.8773 29.216 97.0133 29.016 96.2613 28.616C95.5253 28.216 94.9253 27.712 94.4613 27.104V35.336H91.1013V15.704H94.4613V17.624ZM101.493 22.304C101.493 21.504 101.325 20.816 100.989 20.24C100.669 19.648 100.237 19.2 99.6933 18.896C99.1653 18.592 98.5893 18.44 97.9653 18.44C97.3573 18.44 96.7813 18.6 96.2373 18.92C95.7093 19.224 95.2773 19.672 94.9413 20.264C94.6213 20.856 94.4613 21.552 94.4613 22.352C94.4613 23.152 94.6213 23.848 94.9413 24.44C95.2773 25.032 95.7093 25.488 96.2373 25.808C96.7813 26.112 97.3573 26.264 97.9653 26.264C98.5893 26.264 99.1653 26.104 99.6933 25.784C100.237 25.464 100.669 25.008 100.989 24.416C101.325 23.824 101.493 23.12 101.493 22.304ZM118.87 29.168C117.702 29.168 116.646 28.968 115.702 28.568C114.774 28.168 114.038 27.592 113.494 26.84C112.95 26.088 112.67 25.2 112.654 24.176H116.254C116.302 24.864 116.542 25.408 116.974 25.808C117.422 26.208 118.03 26.408 118.798 26.408C119.582 26.408 120.198 26.224 120.646 25.856C121.094 25.472 121.318 24.976 121.318 24.368C121.318 23.872 121.166 23.464 120.862 23.144C120.558 22.824 120.174 22.576 119.71 22.4C119.262 22.208 118.638 22 117.838 21.776C116.75 21.456 115.862 21.144 115.174 20.84C114.502 20.52 113.918 20.048 113.422 19.424C112.942 18.784 112.702 17.936 112.702 16.88C112.702 15.888 112.95 15.024 113.446 14.288C113.942 13.552 114.638 12.992 115.534 12.608C116.43 12.208 117.454 12.008 118.606 12.008C120.334 12.008 121.734 12.432 122.806 13.28C123.894 14.112 124.494 15.28 124.606 16.784H120.91C120.878 16.208 120.63 15.736 120.166 15.368C119.718 14.984 119.118 14.792 118.366 14.792C117.71 14.792 117.182 14.96 116.782 15.296C116.398 15.632 116.206 16.12 116.206 16.76C116.206 17.208 116.35 17.584 116.638 17.888C116.942 18.176 117.31 18.416 117.742 18.608C118.19 18.784 118.814 18.992 119.614 19.232C120.702 19.552 121.59 19.872 122.278 20.192C122.966 20.512 123.558 20.992 124.054 21.632C124.55 22.272 124.798 23.112 124.798 24.152C124.798 25.048 124.566 25.88 124.102 26.648C123.638 27.416 122.958 28.032 122.062 28.496C121.166 28.944 120.102 29.168 118.87 29.168ZM131.623 18.464V24.896C131.623 25.344 131.727 25.672 131.935 25.88C132.159 26.072 132.527 26.168 133.039 26.168H134.599V29H132.487C129.655 29 128.239 27.624 128.239 24.872V18.464H126.655V15.704H128.239V12.416H131.623V15.704H134.599V18.464H131.623ZM142.919 29.216C141.639 29.216 140.487 28.936 139.463 28.376C138.439 27.8 137.631 26.992 137.039 25.952C136.463 24.912 136.175 23.712 136.175 22.352C136.175 20.992 136.471 19.792 137.063 18.752C137.671 17.712 138.495 16.912 139.535 16.352C140.575 15.776 141.735 15.488 143.015 15.488C144.295 15.488 145.455 15.776 146.495 16.352C147.535 16.912 148.351 17.712 148.943 18.752C149.551 19.792 149.855 20.992 149.855 22.352C149.855 23.712 149.543 24.912 148.919 25.952C148.311 26.992 147.479 27.8 146.423 28.376C145.383 28.936 144.215 29.216 142.919 29.216ZM142.919 26.288C143.527 26.288 144.095 26.144 144.623 25.856C145.167 25.552 145.599 25.104 145.919 24.512C146.239 23.92 146.399 23.2 146.399 22.352C146.399 21.088 146.063 20.12 145.391 19.448C144.735 18.76 143.927 18.416 142.967 18.416C142.007 18.416 141.199 18.76 140.543 19.448C139.903 20.12 139.583 21.088 139.583 22.352C139.583 23.616 139.895 24.592 140.519 25.28C141.159 25.952 141.959 26.288 142.919 26.288ZM155.68 17.768C156.112 17.064 156.672 16.512 157.36 16.112C158.064 15.712 158.864 15.512 159.76 15.512V19.04H158.872C157.816 19.04 157.016 19.288 156.472 19.784C155.944 20.28 155.68 21.144 155.68 22.376V29H152.32V15.704H155.68V17.768ZM174.383 22.064C174.383 22.544 174.351 22.976 174.287 23.36H164.567C164.647 24.32 164.983 25.072 165.575 25.616C166.167 26.16 166.895 26.432 167.759 26.432C169.007 26.432 169.895 25.896 170.423 24.824H174.047C173.663 26.104 172.927 27.16 171.839 27.992C170.751 28.808 169.415 29.216 167.831 29.216C166.551 29.216 165.399 28.936 164.375 28.376C163.367 27.8 162.575 26.992 161.999 25.952C161.439 24.912 161.159 23.712 161.159 22.352C161.159 20.976 161.439 19.768 161.999 18.728C162.559 17.688 163.343 16.888 164.351 16.328C165.359 15.768 166.519 15.488 167.831 15.488C169.095 15.488 170.223 15.76 171.215 16.304C172.223 16.848 172.999 17.624 173.543 18.632C174.103 19.624 174.383 20.768 174.383 22.064ZM170.903 21.104C170.887 20.24 170.575 19.552 169.967 19.04C169.359 18.512 168.615 18.248 167.735 18.248C166.903 18.248 166.199 18.504 165.623 19.016C165.063 19.512 164.719 20.208 164.591 21.104H170.903Z" fill="white"/>
<path d="M29.616 30.8601C29.0729 32.1091 28.43 33.2588 27.6852 34.3158C26.6699 35.7568 25.8386 36.7543 25.198 37.3081C24.2049 38.2173 23.1408 38.6829 22.0014 38.7094C21.1834 38.7094 20.197 38.4777 19.0487 38.0077C17.8966 37.5398 16.8379 37.3081 15.8698 37.3081C14.8546 37.3081 13.7657 37.5398 12.601 38.0077C11.4345 38.4777 10.4948 38.7227 9.77638 38.7469C8.68374 38.7933 7.59464 38.3144 6.50754 37.3081C5.81369 36.7057 4.94583 35.673 3.90616 34.2099C2.79069 32.6475 1.87361 30.8358 1.15516 28.7703C0.385717 26.5393 0 24.379 0 22.2874C0 19.8916 0.520054 17.8252 1.56171 16.0936C2.38036 14.7027 3.46946 13.6055 4.83255 12.8001C6.19564 11.9946 7.66846 11.5842 9.25456 11.5579C10.1224 11.5579 11.2605 11.8251 12.6748 12.3503C14.0851 12.8773 14.9907 13.1445 15.3877 13.1445C15.6845 13.1445 16.6905 12.8321 18.3958 12.2091C20.0085 11.6314 21.3696 11.3922 22.4847 11.4864C25.5061 11.7291 27.7761 12.9148 29.2857 15.0509C26.5835 16.6808 25.2468 18.9637 25.2734 21.8922C25.2977 24.1733 26.129 26.0715 27.7628 27.5787C28.5032 28.2782 29.33 28.8189 30.25 29.2029C30.0505 29.7788 29.8399 30.3305 29.616 30.8601ZM22.6864 3.7152C22.6864 5.50311 22.0302 7.17248 20.7223 8.71762C19.144 10.5545 17.2349 11.6159 15.1647 11.4484C15.1383 11.2339 15.123 11.0082 15.123 10.771C15.123 9.05459 15.8736 7.21771 17.2065 5.71582C17.872 4.95538 18.7184 4.32309 19.7447 3.8187C20.7689 3.32183 21.7376 3.04705 22.6487 3C22.6753 3.23902 22.6864 3.47805 22.6864 3.71518V3.7152Z" fill="white"/>
</svg>
