<svg width="196" height="350" viewBox="0 0 196 350" fill="none" xmlns="http://www.w3.org/2000/svg">
<path fill-rule="evenodd" clip-rule="evenodd" d="M168.017 79.9661C168.917 87.1564 163.709 99.5783 157.758 104.437C153.293 108.082 152.342 108.206 150.993 105.328C150.132 103.485 149.736 100.575 150.116 98.8615C150.712 96.1654 150.967 96.4329 151.998 100.838C153.051 105.347 153.274 105.572 153.934 102.799C154.445 100.655 155.351 100.203 156.806 101.366C158.58 102.785 159.492 101.841 162.327 95.6592C165.666 88.3781 167.324 80.885 165.539 81.1414C165.04 81.2131 163.813 83.9034 162.811 87.1187C161.81 90.3351 159.909 94.5041 158.589 96.3846C155.73 100.453 156.009 99.3149 160.909 86.917C164.307 78.3153 164.32 77.5801 161.045 78.5037C157.844 79.4068 157.899 79.238 161.558 76.9343C166.356 73.9148 167.316 74.3647 168.017 79.9661ZM176.133 123.85C174.691 130.361 152.05 135.916 146.157 131.206C143.715 129.254 142.861 129.999 136.603 139.547L129.732 150.031L138.966 148.86C152.483 147.146 161.051 152.217 156.462 159.219C152.6 165.11 137.336 164.636 129.511 158.382C126.978 156.357 125.641 156.739 122.147 160.486C116.182 166.882 109.659 177.151 109.562 180.295C109.5 182.297 111.464 183.07 117.692 183.5C122.209 183.81 127.745 183.424 129.996 182.641C137.452 180.046 129.619 176.648 119.525 178.098C114.554 178.812 110.851 178.839 111.297 178.16C111.742 177.48 116.082 176.577 120.94 176.154C127.36 175.593 130.682 176.288 133.092 178.694C137.175 182.771 135.238 188.026 128.723 190.546C123.271 192.655 109.552 189.913 107.307 186.267C105.399 183.17 103.387 184.322 95.1333 193.243C89.5474 199.28 89.6017 199.131 96.0298 190.744C102.817 181.89 102.841 181.807 99.4278 179.079C87.4553 169.509 86.3986 148.159 97.9567 149.357C102.59 149.836 107.644 160.924 107.578 170.462L107.529 177.662L114.303 167.847C118.028 162.449 121.849 156.971 122.793 155.675C124.548 153.262 124.25 152.773 117.443 146.871C114.901 144.667 113.001 140.604 112.072 135.387C111.282 130.946 111.206 129.328 111.902 131.789C113.985 139.152 116.755 143.927 120.776 147.092L124.579 150.085L123.098 144.537C121.048 136.865 114.197 124.34 111.912 124.088C109.482 123.823 110.352 122.546 114.333 120.541C116.073 119.666 118.713 119.922 120.202 121.112C124.191 124.301 128.513 133.713 129.219 140.754L129.838 146.924L135.408 137.556L140.977 128.188L136.695 123.531C129.748 115.978 125.615 103.217 128.627 98.6212C128.906 98.1962 129.302 100.528 129.506 103.802C129.942 110.77 133.634 119.065 137.773 122.374C140.253 124.356 140.644 124.174 140.383 121.164C139.881 115.363 136.218 105.694 132.252 99.6966L128.535 94.0773L133.246 95.2461C139.174 96.7154 143.023 101.58 145.279 110.452C146.851 116.631 147.239 117.113 148.883 114.932C149.897 113.588 149.88 114.686 148.843 117.373L146.958 122.258L153.482 119.517C164.897 114.724 177.616 117.156 176.133 123.85ZM165.688 118.356C158.598 117.781 145.605 123.966 146.236 127.617C146.939 131.688 155.157 132.429 164.596 129.274C175.617 125.59 176.256 119.212 165.688 118.356ZM171.765 123.214C170.498 125.359 149.531 129.641 147.652 128.139C146.86 127.507 150.126 126.518 154.908 125.943C159.691 125.367 165.66 124.146 168.172 123.229C170.685 122.31 172.301 122.304 171.765 123.214ZM134.749 98.6503C134.245 99.4193 134.377 100.483 135.042 101.015C135.705 101.545 137.916 106.604 139.956 112.255C143.997 123.462 144.474 123.839 144.609 115.953C144.753 107.601 137.372 94.6487 134.749 98.6503ZM116.443 122.122C115.593 122.478 116.238 125.067 117.874 127.874C119.512 130.681 121.992 136.179 123.388 140.09C126.495 148.801 128.724 149.06 127.578 140.578C126.296 131.099 119.981 120.633 116.443 122.122ZM144.014 150.733C139.491 150.594 134.25 151.258 132.368 152.205C128.984 153.911 129.012 153.941 134.941 155.144C143.087 156.795 153.934 156.829 154.997 155.207C156.61 152.745 152.286 150.983 144.014 150.733ZM138.758 158.122C128.865 156.657 130.595 159.043 140.914 161.098C144.825 161.876 149.665 161.669 151.667 160.638C155.152 158.843 155.133 158.775 151.233 159.064C148.989 159.23 143.375 158.806 138.758 158.122ZM96.3435 151.003C95.8505 151.755 96.9225 155.389 98.7297 159.074C101.771 165.283 104.381 176.646 102.403 175.065C101.924 174.682 100.206 169.953 98.5818 164.553C95.3601 153.837 93.8575 151.673 91.8103 154.797C89.251 158.702 93.7461 172.406 98.9499 176.566C101.7 178.764 105.17 175.43 105.756 170.028C106.659 161.703 99.2052 146.637 96.3435 151.003ZM114.73 185.34L109.849 185.054L112.957 187.651C114.793 189.185 119.209 189.796 123.748 189.144C133.578 187.732 135.889 184.522 126.624 185.149C122.768 185.411 117.415 185.496 114.73 185.34ZM86.2191 186.284C86.8642 190.709 87.5187 197.093 87.6714 200.471C87.922 205.991 88.3898 206.696 92.3067 207.453C100.433 209.021 109.916 208.5 110.002 206.48C110.146 203.018 103.453 201.484 95.2959 203.107C90.956 203.97 88.9682 203.836 90.8408 202.806C96.116 199.904 107.308 200.002 110.135 202.975C113.502 206.515 111.322 211.324 104.894 214.539C98.8844 217.543 92.9593 216.52 86.5089 211.365C82.8646 208.452 81.4413 208.262 79.3212 210.413C76.7279 213.043 76.7113 213.034 78.4749 209.924C79.9101 207.394 79.2681 205.647 75.285 201.255C66.2863 191.34 66.7298 175.727 76.0449 174.388C81.5832 173.593 84.9417 177.52 86.2191 186.284ZM77.5712 176.523C75.9746 176.382 75.2647 176.763 75.9934 177.368C76.7221 177.974 78.8512 183.511 80.7233 189.672C82.5954 195.832 84.4268 200.409 84.7917 199.84C86.2308 197.6 85.5332 186.221 83.7088 182.181C81.3659 176.988 81.2077 176.843 77.5712 176.523ZM71.1781 180.031C68.4318 184.221 70.6242 193.556 75.7184 199.367C78.1639 202.157 80.8252 204.339 81.6333 204.218C83.8456 203.888 77.064 180.41 74.0558 177.982C73.5028 177.536 72.209 178.458 71.1781 180.031ZM95.5307 210.064C89.7717 209.441 88.4176 209.826 89.9928 211.639C92.5862 214.622 100.339 215.367 104.9 213.071C107.672 211.675 107.835 211.298 105.742 211.114C104.317 210.99 99.7227 210.517 95.5307 210.064ZM64.6532 209.035C65.2306 213.136 65.1293 217.369 64.4265 218.442C62.8384 220.865 65.0284 222.845 67.3465 221.082C68.2849 220.369 67.6077 221.361 65.8395 223.291L62.6257 226.799L71.8946 225.468C78.4519 224.526 82.2945 225.041 85.0294 227.227C90.5448 231.635 90.6333 236.438 85.2608 239.916C79.9728 243.341 74.1436 241.962 65.8422 235.327C59.7304 230.442 59.1497 230.35 55.0383 233.616C51.0321 236.799 51.0923 236.544 55.8012 230.343C60.6934 223.903 60.8252 223.165 58.9333 212.741C56.8551 201.291 55.0276 199.492 52.5957 206.494C51.6984 209.075 52.3761 213.341 54.3394 217.482C56.1051 221.203 56.8658 223.744 56.0289 223.128C55.1929 222.511 53.3955 218.929 52.035 215.167C49.3662 207.786 51.5109 200.435 56.7112 199.137C61.2089 198.015 63.503 200.874 64.6532 209.035ZM73.8081 216.127C72.5481 218.049 71.7272 218.593 71.9856 217.333C72.2417 216.074 73.2726 214.501 74.2764 213.838C75.278 213.175 75.068 214.204 73.8081 216.127ZM60.2076 210.512C61.0529 215.406 62.2027 218.712 62.7625 217.857C64.0885 215.834 61.5607 201.198 59.9247 201.433C59.2355 201.532 59.3623 205.618 60.2076 210.512ZM74.0917 227.228C63.9849 227.951 63.2987 229.763 72.0896 232.516C84.1877 236.304 91.4701 234.506 84.9956 229.33C83.1741 227.874 78.2672 226.929 74.0917 227.228ZM70.0197 236.158C71.8697 238.014 75.5139 239.706 78.1175 239.919C86.3197 240.584 84.8478 237.914 75.5695 235.296C67.5535 233.034 66.9954 233.121 70.0197 236.158ZM41.13 230.26C41.4423 232.726 41.0145 236.939 40.1811 239.622L38.6659 244.498L42.5002 242.237L46.3345 239.975L43.2471 242.834C41.5479 244.405 39.0589 246.566 37.713 247.636C35.7035 249.234 36.2747 249.477 40.9266 249.007C50.7193 248.014 59.5194 250.25 61.0346 254.116C63.0226 259.184 60.7217 262.97 55.0377 263.987C48.5445 265.146 43.6253 262.836 38.0156 255.991L33.5355 250.524L26.1616 255.548C22.1081 258.309 17.4986 261.432 15.9191 262.484C13.1622 264.32 13.2676 264.393 18.5898 264.324C26.6737 264.224 34.8227 268.999 36.0429 274.555C37.2738 280.154 35.3565 283.023 29.1663 284.844C25.0124 286.066 23.2057 285.406 16.8977 280.364C12.293 276.683 9.32367 273.187 9.03419 271.102C8.64271 268.286 8.87839 268.276 10.5133 271.032C11.5831 272.835 14.5119 276.371 17.0219 278.891C20.7322 282.615 22.7069 283.309 27.5967 282.607C30.9025 282.132 33.5112 281.188 33.3947 280.507C33.1493 279.085 15.2992 269.198 11.3006 268.269C9.83591 267.927 2.89766 270.74 -4.11502 274.515C-20.662 283.428 -41.6824 292.733 -41.9382 291.258C-42.0479 290.623 -37.8574 288.386 -32.6253 286.287C-27.3941 284.19 -16.5025 278.899 -8.42128 274.533L6.2726 266.596L3.70439 259.724C-0.294991 249.023 2.9493 238.082 10.4431 237.005C17.5238 235.989 20.4437 242.519 17.7498 253.347C16.2329 259.447 16.3851 260.174 18.828 258.47C20.3934 257.378 23.883 255.017 26.5822 253.222C33.3743 248.706 33.4963 248.273 29.7863 241.869C23.1547 230.421 28.4003 216.052 36.7675 222.74C38.8549 224.409 40.8185 227.793 41.13 230.26ZM35.4785 225.132C35.1734 225.597 35.2102 229.055 35.5598 232.816C35.9095 236.577 35.7328 240.36 35.1683 241.221C34.6038 242.082 34.0071 238.655 33.8412 233.605C33.5156 223.642 32.0819 220.944 29.3365 225.133C27.36 228.149 30.1761 241.505 33.0115 242.563C36.4768 243.856 39.9315 237.754 39.0822 231.839C38.2909 226.325 36.6716 223.311 35.4785 225.132ZM47.4941 250.664C39.0617 250.41 38.9731 250.46 40.4483 254.778C42.2076 259.93 49.2766 264.035 54.1785 262.753C57.0366 262.005 57.0117 261.781 53.9812 260.927C52.0802 260.392 48.2644 258.484 45.5027 256.685C41.3262 253.969 41.7798 253.967 48.192 256.677C56.7411 260.289 60.6099 260.392 60.752 257.011C60.9139 253.128 56.3271 250.932 47.4941 250.664ZM12.293 248.943C11.898 255.049 11.97 260.379 12.4542 260.79C14.2596 262.32 17.517 248.761 16.4175 244.292C14.389 236.053 13.0295 237.587 12.293 248.943ZM5.54697 242.692C3.65289 245.582 3.1368 249.365 3.97527 254.219C6.38607 268.178 10.3802 264.535 10.5937 248.187C10.7188 238.555 9.28291 236.992 5.54697 242.692ZM20.1338 265.95C17.975 265.934 16.3113 266.511 16.436 267.233C16.7616 269.125 32.1766 276.625 34.0871 275.821C36.7231 274.713 24.3841 265.984 20.1338 265.95Z" fill="#EAD1C2"/>
<path fill-rule="evenodd" clip-rule="evenodd" d="M81.4794 9.65987C85.489 15.4115 86.5423 29.0507 83.5544 36.5283C81.3133 42.1387 80.5429 42.7671 78.0803 41.0058C76.5048 39.8765 74.8548 37.5665 74.4157 35.8699C73.7231 33.2022 74.0642 33.2951 76.9369 36.5568C79.8753 39.8958 80.17 39.9691 79.4991 37.1998C78.9801 35.058 79.5642 34.1695 81.3496 34.383C83.5274 34.6433 83.8952 33.3245 83.5828 26.4037C83.2142 18.2523 81.2907 10.8369 79.8555 12.0369C79.454 12.3725 79.5961 15.3807 80.1693 18.7217C80.7442 22.0628 80.9644 26.7243 80.6618 29.0804C80.0053 34.1788 79.737 33.0375 78.4266 19.588C77.5164 10.2573 77.1978 9.61164 74.7685 12.2066C72.3933 14.7437 72.3657 14.5667 74.5094 10.5627C77.3205 5.31392 78.356 5.17904 81.4794 9.65987ZM108.228 43.3283C109.898 49.7725 92.7292 66.992 85.4969 66.1275C82.4998 65.7692 82.0921 66.8837 80.9435 78.6019L79.6824 91.4696L87.1759 85.3969C98.1461 76.5072 107.863 76.2208 107.021 84.8143C106.312 92.0452 92.8424 99.9903 83.2395 98.8425C80.1303 98.4708 79.1404 99.5347 77.7884 104.701C75.4795 113.522 74.4238 126.011 75.7505 128.795C76.5958 130.568 78.6485 130.164 84.25 127.127C88.3121 124.924 92.9468 121.557 94.5503 119.645C99.8613 113.31 91.5325 114.647 83.4172 121.432C79.4203 124.774 76.2171 126.825 76.2989 125.991C76.3806 125.157 79.7442 121.997 83.7736 118.97C89.0978 114.967 92.2941 113.752 95.4677 114.522C100.844 115.828 101.52 121.452 96.993 127.208C93.2052 132.024 80.06 137.154 76.4738 135.216C73.4261 133.571 72.1959 135.674 69.0323 147.939C66.8911 156.24 66.8716 156.081 68.6894 145.278C70.6095 133.873 70.5928 133.788 66.4038 133.287C51.7102 131.53 41.2085 113.567 51.784 108.28C56.0231 106.16 65.3894 113.022 69.6144 121.341L72.8033 127.622L74.2807 115.389C75.0919 108.661 75.9517 101.811 76.1894 100.17C76.6307 97.1133 76.1527 96.8513 67.5918 95.453C64.394 94.9301 60.9201 92.442 57.7718 88.42C55.0919 84.9956 54.2999 83.6319 56.0092 85.3882C61.1233 90.6417 65.6723 93.2722 70.5856 93.8196L75.2316 94.3368L71.4547 90.3299C66.2302 84.7889 54.6581 77.6628 52.5605 78.695C50.3312 79.7948 50.5133 78.209 53.0707 74.2892C54.1894 72.5757 56.5975 71.3532 58.4241 71.5715C63.3203 72.1568 71.2989 77.9645 75.0723 83.6931L78.3797 88.7133L79.0124 77.5272L79.6433 66.3426L73.8338 64.6431C64.4103 61.8865 55.0924 53.0664 55.6452 47.4261C55.6963 46.9045 57.0869 48.7129 58.7339 51.4444C62.2405 57.2575 69.1712 62.44 74.2505 63.0471C77.2937 63.4109 77.552 63.039 75.9746 60.5676C72.9338 55.805 65.4127 49.413 59.2757 46.3757L53.5252 43.5305L58.1418 41.966C63.9488 39.9971 69.4755 42.1143 75.4177 48.5848C79.5562 53.0897 80.1097 53.2965 80.5588 50.5013C80.836 48.7793 81.3136 49.7426 81.6197 52.6437L82.1752 57.9182L86.6114 51.9661C94.3734 41.5541 106.511 36.7031 108.228 43.3283ZM96.6902 44.2755C90.2743 47.6577 81.7671 60.1419 83.9536 62.9674C86.3918 66.1182 93.8615 62.263 100.643 54.3552C108.561 45.1216 106.253 39.233 96.6902 44.2755ZM104.148 45.167C104.011 47.7234 87.7242 62.9217 85.4178 62.646C84.4468 62.5299 86.8394 59.8837 90.7342 56.7661C94.6292 53.6467 99.2648 49.3191 101.035 47.1472C102.805 44.9733 104.206 44.0837 104.148 45.167ZM60.9749 44.0998C60.8824 45.0435 61.4743 45.8955 62.2904 45.9931C63.1048 46.0904 67.2961 49.2736 71.6046 53.0645C80.1442 60.5851 80.7281 60.6514 77.3053 53.7286C73.6808 46.3963 61.4562 39.1888 60.9749 44.0998ZM55.613 74.5062C55.035 75.2808 56.7573 77.1759 59.4382 78.7185C62.1208 80.2596 66.7429 83.6766 69.7105 86.309C76.3193 92.1734 78.3716 91.1776 73.5681 84.4387C68.2001 76.9084 58.0177 71.2764 55.613 74.5062ZM92.4011 84.2594C88.4107 86.6156 84.1568 90.0618 82.9479 91.9137C80.7748 95.2476 80.812 95.259 86.5018 93.0573C94.3171 90.0316 103.753 84.1232 103.948 82.1327C104.244 79.111 99.697 79.9477 92.4011 84.2594ZM91.1531 93.5543C81.9039 97.6985 84.4772 98.8238 94.3612 94.9586C98.1075 93.4933 102.218 90.6635 103.494 88.672C105.715 85.2051 105.668 85.156 102.41 87.5426C100.536 88.9157 95.4706 91.6208 91.1531 93.5543ZM51.122 110.593C51.0316 111.516 53.5935 114.084 56.8176 116.296C62.2465 120.023 69.6136 128.462 67.1853 128.172C66.5984 128.102 62.9826 124.936 59.1487 121.135C51.5402 113.592 49.2637 112.536 48.888 116.369C48.4183 121.162 58.4743 130.603 64.8608 131.366C68.2354 131.77 69.7528 126.974 67.8373 121.962C64.8833 114.238 51.6473 105.234 51.122 110.593ZM82.5034 130.347L78.1361 132.771L82.0014 133.325C84.2844 133.652 88.3938 131.765 92.0437 128.713C99.9465 122.106 100.512 118.052 92.7482 123.669C89.5167 126.008 84.9058 129.013 82.5034 130.347ZM58.1667 146.776C60.7134 150.266 64.1479 155.452 65.7967 158.302C68.4925 162.959 69.2149 163.315 72.9565 161.828C80.7179 158.74 88.7198 153.096 87.8873 151.295C86.4584 148.21 79.957 150.542 73.6019 156.417C70.22 159.542 68.4336 160.514 69.5974 158.595C72.8762 153.186 82.64 147.144 86.4298 148.178C90.9425 149.409 91.2085 154.779 87.0689 161.091C83.1984 166.989 77.5937 169.345 69.6773 168.399C65.2047 167.864 63.8835 168.479 63.0079 171.508C61.9361 175.211 61.9176 175.213 62.0534 171.547C62.164 168.563 60.8222 167.398 55.3916 165.764C43.1253 162.079 36.5022 148.278 43.991 142.015C48.4438 138.293 53.1233 139.864 58.1667 146.776ZM46.2746 143.033C44.8249 143.785 44.3792 144.504 45.284 144.632C46.1889 144.759 50.5235 148.402 54.9148 152.727C59.306 157.052 62.951 160.024 63.0123 159.33C63.2568 156.597 57.5431 147.097 54.1448 144.587C49.7793 141.36 49.5765 141.32 46.2746 143.033ZM42.2972 149.58C41.7932 154.723 47.8878 161.63 54.9202 163.887C58.2964 164.971 61.5875 165.41 62.2349 164.862C64.0079 163.364 47.5794 146.687 43.8769 146.226C43.1964 146.141 42.4864 147.649 42.2972 149.58ZM76.9286 162.33C71.6473 164.942 70.6445 166.018 72.8263 166.73C76.4176 167.901 83.4851 164.303 86.4155 159.812C88.1958 157.082 88.1682 156.665 86.2685 157.652C84.9751 158.324 80.7726 160.429 76.9286 162.33ZM49.6506 178.342C51.9928 181.587 53.8053 185.319 53.6763 186.635C53.3848 189.609 56.1758 190.13 57.3976 187.33C57.8923 186.196 57.7498 187.429 57.0804 190.073L55.8638 194.879L63.3161 188.648C68.5883 184.24 72.1564 182.584 75.5129 182.985C82.2819 183.794 84.5147 187.917 81.4102 193.879C78.3549 199.748 72.6738 201.742 62.4857 200.524C54.9847 199.628 54.4393 199.866 52.3346 204.953C50.2842 209.911 50.2223 209.657 51.5282 201.693C52.886 193.422 52.669 192.709 46.3464 184.691C39.4021 175.886 37.0071 175.323 38.0384 182.736C38.4177 185.469 40.9214 188.803 44.4854 191.324C47.6892 193.589 49.4902 195.379 48.487 195.302C47.4839 195.224 44.3149 193.097 41.4448 190.575C35.8138 185.626 34.3763 178.068 38.3101 174.094C41.7125 170.657 44.9881 171.883 49.6506 178.342ZM60.7848 179.488C60.5535 181.848 60.0846 182.769 59.7436 181.534C59.4009 180.3 59.5901 178.37 60.1641 177.244C60.7363 176.12 61.016 177.129 60.7848 179.488ZM46.4526 182.058C49.3838 185.846 51.8661 188.087 51.9689 187.038C52.2122 184.555 43.4469 173.229 42.1316 174.328C41.5775 174.792 43.5215 178.27 46.4526 182.058ZM66.0145 188.974C57.5616 195.135 57.7791 197.085 66.6494 194.663C78.8565 191.329 84.3739 185.78 76.4279 184.83C74.1924 184.563 69.5064 186.428 66.0145 188.974ZM66.4869 198.959C68.9266 199.558 72.851 199.032 75.2076 197.792C82.6295 193.879 80.1525 192.366 70.9194 195.171C62.9428 197.596 62.4968 197.977 66.4869 198.959ZM38.7494 209.653C40.1274 211.624 41.6472 215.517 42.128 218.303L43.0009 223.368L45.3156 219.304L47.6302 215.241L46.2322 219.414C45.4619 221.709 44.2704 224.948 43.5817 226.614C42.5539 229.102 43.1593 229.001 46.9882 226.046C55.047 219.822 63.6933 216.946 66.7446 219.474C70.7463 222.787 70.4473 227.334 65.9678 231.33C60.849 235.891 55.5395 236.578 47.5952 233.705L41.2503 231.41L37.1014 239.809C34.8208 244.427 32.2194 249.663 31.3196 251.441C29.7495 254.545 29.874 254.551 34.4652 251.577C41.4406 247.064 50.6615 246.75 54.2152 250.907C57.7976 255.095 57.4204 258.637 52.862 263.607C49.8031 266.943 47.9376 267.359 40.196 266.433C34.5447 265.758 30.3965 264.347 29.2092 262.695C27.6049 260.463 27.8052 260.326 30.4621 261.824C32.2006 262.804 36.3316 264.272 39.6426 265.086C44.5367 266.289 46.5633 265.811 50.4947 262.524C53.1526 260.302 54.9941 258.053 54.5872 257.526C53.736 256.426 33.7954 257.611 29.9055 258.994C28.4801 259.498 23.717 265.74 19.3216 272.858C8.95207 289.658 -5.12668 309.247 -6.01063 308.106C-6.39109 307.615 -3.75585 303.378 -0.154162 298.69C3.44736 294.005 10.5315 283.448 15.5899 275.231L24.7879 260.293L19.4725 255.731C11.1956 248.627 9.10197 237.35 15.1265 232.311C20.82 227.553 26.2868 231.625 28.8081 242.504C30.2289 248.632 30.6874 249.179 32.0442 246.363C32.9134 244.557 34.8844 240.596 36.4229 237.56C40.294 229.919 40.2056 229.476 34.1087 225.945C23.2106 219.634 21.316 204.283 31.5849 205.511C34.1468 205.817 37.3715 207.681 38.7494 209.653ZM31.539 208.293C31.483 208.865 33.067 211.847 35.059 214.922C37.051 217.997 38.5958 221.379 38.4922 222.436C38.3886 223.493 36.3317 220.843 33.9206 216.548C29.1654 208.074 26.7095 206.516 26.2056 211.657C25.8429 215.359 34.284 225.416 37.2215 224.783C40.8115 224.009 41.0726 216.818 37.6795 212.145C34.5171 207.79 31.758 206.059 31.539 208.293ZM53.4358 223.889C45.9982 228.285 45.9441 228.377 49.1633 231.319C53.0039 234.83 60.9861 234.526 64.6674 230.728C66.8141 228.514 66.6918 228.333 63.6764 229.25C61.7853 229.826 57.615 230.259 54.4092 230.209C49.5628 230.136 49.9559 229.886 56.7408 228.729C65.7869 227.185 69.193 225.157 67.7988 222.143C66.1966 218.682 61.2273 219.286 53.4358 223.889ZM22.0919 241.666C24.4898 247.185 26.9454 251.775 27.5502 251.867C29.8051 252.207 26.5474 238.648 23.5864 235.369C18.1261 229.324 17.6341 231.401 22.0919 241.666ZM13.4273 239.931C13.0797 243.478 14.3295 247.045 17.237 250.802C25.5967 261.605 27.4303 256.255 20.2771 241.941C16.0617 233.506 14.113 232.935 13.4273 239.931ZM36.5362 252.144C34.6538 253.311 33.468 254.723 33.9003 255.282C35.0326 256.747 51.7867 254.821 53.0851 253.077C54.877 250.672 40.2423 249.846 36.5362 252.144Z" fill="#EAD1C2"/>
</svg>
